<svg t="1715252326634" viewBox="0 0 1024 1024" version="1.1" xmlns="http://www.w3.org/2000/svg" p-id="4284"><path d="M935.392 507.68l-0.16 0.8-109.056-125.984a19.808 19.808 0 0 0-13.728-10.368L463.68 301.568a20.064 20.064 0 0 0-11.488 0.992l0.128-0.064-281.376 108.832a20.288 20.288 0 0 0-4.512 2.688l0.032-0.032h-0.96a80.256 80.256 0 0 0-4 4.576l-0.128 0.16-88.64 149.6c-3.136 5.312-3.584 11.744-1.216 17.44s7.328 9.952 13.344 11.552l73.632 19.072v207.232c0 8.736 5.856 16.448 14.368 18.88l392.832 111.328a20.16 20.16 0 0 0 16.064-1.792l-0.096 0.064 247.52-136.96a19.68 19.68 0 0 0 10.24-17.312l-2.56-205.824 93.568-54.496a19.84 19.84 0 0 0 9.504-13.632l0.032-0.128a19.456 19.456 0 0 0-4.608-16.032l0.032 0.032zM120.32 566.752l67.872-114.464 345.376 82.528-81.408 118.272-331.84-86.304z m78.432 242.976v-182.048l257.568 66.944a20.16 20.16 0 0 0 21.568-8.032l69.792-101.408 3.2 324.256-352.096-99.68z m377.184-305.632L243.808 424.864l217.664-83.616 292.224 59.84-31.936 18.272-145.792 84.704z m14.528 398.688l-3.2-326.144 61.792 102.528a20 20 0 0 0 27.296 6.944l120.736-70.24 2.08 171.488-208.704 115.424z m82.72-260.608l-66.112-109.44 196.576-114.944 85.888 98.56-216.352 125.824zM481.792 208.928a23.296 23.296 0 0 0 23.296-23.296V92.416a23.296 23.296 0 0 0-46.592 0v93.216c0 12.864 10.432 23.296 23.296 23.296z m-172.416 25.824a23.36 23.36 0 0 0 37.824-27.264L292.64 131.904a23.36 23.36 0 0 0-37.792 27.264l54.56 75.584z m313.44 0.832c9.632 7.648 23.072 5.248 30.016-5.344l50.336-76.8c6.944-10.592 4.768-25.408-4.864-33.056s-23.072-5.248-30.016 5.344l-50.336 76.8c-6.944 10.624-4.768 25.408 4.864 33.056z" fill="currentColor" p-id="4285"></path></svg>
