<?xml version="1.0" encoding="utf-8"?>
<svg t="1714715114199" viewBox="0 0 1024 1024" version="1.1" xmlns="http://www.w3.org/2000/svg" p-id="834"><path d="M786.5856 664.5248c67.3792 0 122.0096 54.6304 122.0096 122.0096s-54.6304 122.0096-122.0096 122.0096l-221.7472 0.0512c-16.8448 29.184-54.1696 39.168-83.3536 22.3232s-39.168-54.1696-22.3232-83.3536c16.8448-29.184 54.1696-39.168 83.3536-22.3232 9.2672 5.376 16.9472 13.056 22.3232 22.3232h221.7472c33.6896 0 61.0304-27.3408 61.0304-61.0304s-27.3408-61.0304-61.0304-61.0304h-172.3904c19.6096-20.48 37.8368-40.8576 54.6304-61.0304h117.76zM512 84.8896c128.9216 0 235.6224 100.2496 243.6096 228.9152l0.3584 7.5264 0.1024 7.5776-0.1536 8.7552c-3.4304 109.4144-71.5264 230.9632-204.288 364.6464l-18.432 18.176a30.464 30.464 0 0 1-39.4752 2.4064l-2.816-2.4576-8.8064-8.5504C346.4704 577.8944 275.3024 455.9872 268.4928 346.112l-0.4096-9.1648-0.1024-8.0896C267.9296 194.1504 377.1904 84.8896 512 84.8896zM237.4144 481.4848h2.0992c8.3456 20.1728 18.3808 40.4992 29.952 61.0304h-32.0512c-33.6896 0-61.0304 27.3408-61.0304 61.0304s27.3408 61.0304 61.0304 61.0304h117.76c16.7936 20.1216 34.9696 40.4992 54.6304 61.0304H237.4144c-67.3792 0-122.0096-54.6304-122.0096-122.0096s54.6304-122.112 122.0096-122.112zM512 237.4144c-50.5344 0-91.5456 40.96-91.5456 91.5456s40.96 91.5456 91.5456 91.5456 91.5456-40.96 91.5456-91.5456-41.0112-91.5456-91.5456-91.5456z" fill="currentColor" p-id="835"></path></svg>
