<?xml version="1.0" encoding="utf-8"?>
<svg t="1714719644132" viewBox="0 0 1024 1024" version="1.1" xmlns="http://www.w3.org/2000/svg" p-id="4266"><path d="M0 341.333333m42.666667 0l0 0q42.666667 0 42.666666 42.666667l0 213.333333q0 42.666667-42.666666 42.666667l0 0q-42.666667 0-42.666667-42.666667l0-213.333333q0-42.666667 42.666667-42.666667Z" fill="currentColor" p-id="4267"></path><path d="M938.666667 341.333333m42.666666 0l0 0q42.666667 0 42.666667 42.666667l0 213.333333q0 42.666667-42.666667 42.666667l0 0q-42.666667 0-42.666666-42.666667l0-213.333333q0-42.666667 42.666666-42.666667Z" fill="currentColor" p-id="4268"></path><path d="M0 554.666667m42.666667 0l938.666666 0q42.666667 0 42.666667 42.666666l0 0q0 42.666667-42.666667 42.666667l-938.666666 0q-42.666667 0-42.666667-42.666667l0 0q0-42.666667 42.666667-42.666666Z" fill="currentColor" p-id="4269"></path></svg>
