<?xml version="1.0" encoding="utf-8"?>
<svg t="1714715138729" viewBox="0 0 1024 1024" version="1.1" xmlns="http://www.w3.org/2000/svg" p-id="996"><path d="M839.68 704.512V208.896C839.68 139.264 784.384 81.92 716.8 81.92H307.2c-67.584 0-122.88 57.344-122.88 126.976v495.616c0 65.536 47.104 120.832 110.592 126.976l-71.68 73.728c-8.192 8.192-8.192 22.528 0 30.72 4.096 4.096 8.192 6.144 14.336 6.144 6.144 0 10.24-2.048 14.336-6.144l100.352-104.448h319.488l100.352 104.448c8.192 8.192 20.48 8.192 28.672 0 8.192-8.192 8.192-22.528 0-30.72l-71.68-73.728c63.488-6.144 110.592-61.44 110.592-126.976z m-40.96-139.264H225.28V315.392h573.44v249.856zM307.2 124.928h409.6c45.056 0 81.92 38.912 81.92 83.968v63.488H225.28v-63.488c0-47.104 36.864-83.968 81.92-83.968z m409.6 665.6H307.2c-45.056 0-81.92-38.912-81.92-83.968v-98.304h573.44v98.304c0 22.528-8.192 45.056-24.576 59.392-14.336 14.336-36.864 24.576-57.344 24.576zM389.12 225.28h225.28c10.24 0 20.48-8.192 20.48-20.48s-8.192-20.48-20.48-20.48H389.12c-10.24 0-20.48 8.192-20.48 20.48s8.192 20.48 20.48 20.48z m-30.72 512c28.672 0 51.2-22.528 51.2-51.2S387.072 634.88 358.4 634.88 307.2 657.408 307.2 686.08s22.528 51.2 51.2 51.2z m307.2-102.4c-28.672 0-51.2 22.528-51.2 51.2s22.528 51.2 51.2 51.2 51.2-22.528 51.2-51.2-22.528-51.2-51.2-51.2z" fill="currentColor" p-id="997"></path></svg>
