<svg xmlns="http://www.w3.org/2000/svg" viewBox="0 0 2131.88 1900">
  <defs>
    <style>
      .a {
        font-size: 248px;
        fill: #efefef;
      }

      .a, .bc, .bd, .bf, .bg, .bh, .bi, .d {
        font-family: SimHei;
      }

      .ab, .ac, .ad, .af, .ah, .ai, .aj, .al, .an, .ao, .aq, .ar, .au, .av, .ay, .az, .b, .bk, .e, .f, .h, .i, .k, .l, .n, .o, .r, .s, .t, .v, .w, .y, .z {
        fill: none;
      }

      .b {
        stroke: #e83828;
      }

      .ad, .af, .ai, .al, .ao, .ar, .au, .av, .ay, .az, .b, .bb, .bc, .bd, .e, .h, .l, .n, .r, .t, .w, .z {
        stroke-miterlimit: 10;
      }

      .ab, .ac, .ad, .af, .ah, .ai, .aj, .al, .an, .ao, .aq, .ar, .au, .av, .ay, .az, .b, .e, .f, .h, .i, .k, .l, .n, .o, .r, .s, .t, .v, .w, .y, .z {
        stroke-width: 10px;
      }

      .c {
        fill: #e83828;
      }

      .bf, .d {
        font-size: 16px;
      }

      .bb, .be, .bh, .d {
        fill: #fff;
      }

      .e, .f {
        stroke: #00a0e9;
      }

      .ab, .ac, .ah, .aj, .an, .aq, .f, .i, .k, .o, .s, .v, .y {
        stroke-linejoin: round;
      }

      .g {
        fill: #00a0e9;
      }

      .h, .i {
        stroke: #036eb8;
      }

      .j {
        fill: #036eb8;
      }

      .k, .l {
        stroke: #e61673;
      }

      .m {
        fill: #e61673;
      }

      .n, .o {
        stroke: #13ae67;
      }

      .p {
        fill: #13ae67;
      }

      .q {
        fill: #7a6a56;
      }

      .r, .s {
        stroke: #7a6a56;
      }

      .t, .v {
        stroke: #8fc31f;
      }

      .u {
        fill: #8fc31f;
      }

      .w, .y {
        stroke: #00913a;
      }

      .x {
        fill: #00913a;
      }

      .z {
        stroke: #f39800;
      }

      .aa {
        fill: #f39800;
      }

      .ab, .ad {
        stroke: #e60012;
      }

      .ac, .az {
        stroke: #6a3906;
      }

      .ae {
        fill: #e60012;
      }

      .af, .ah {
        stroke: #9fa0a0;
      }

      .ag {
        fill: #9fa0a0;
      }

      .ai, .aj {
        stroke: #601986;
      }

      .ak {
        fill: #601986;
      }

      .al, .an {
        stroke: #7f4f21;
      }

      .am {
        fill: #7f4f21;
      }

      .ao, .aq {
        stroke: #171c61;
      }

      .ap {
        fill: #171c61;
      }

      .ar {
        stroke: #006934;
      }

      .as {
        fill: #006934;
      }

      .at {
        fill: #ea5514;
      }

      .au {
        stroke: #ea5514;
      }

      .av {
        stroke: #a40b5d;
      }

      .aw {
        fill: #a40b5d;
      }

      .ax {
        fill: #c9a063;
      }

      .ay {
        stroke: #c9a063;
      }

      .ba {
        fill: #6a3906;
      }

      .bb, .bc {
        stroke: #231815;
      }

      .bc, .bd, .bh, .bi {
        font-size: 12px;
      }

      .bc, .bd {
        stroke-width: 0.1px;
      }

      .bd {
        stroke: #fff;
      }

      .be {
        opacity: 0.6;
      }

      .bg {
        font-size: 48px;
      }

      .bj {
        fill: #b5b5b6;
        font-size: 10px;
      }
    </style>
  </defs>
  <g>
    <text class="a" transform="translate(673.2 801.89) rotate(-45)">WheelJS</text>
    <text class="a" transform="translate(1035.7 941.89) rotate(-45)">WheelJS</text>
    <text class="a" transform="translate(165.7 796.89) rotate(-45)">WheelJS</text>
    <text class="a" transform="translate(550.65 1671.89) rotate(-45)">WheelJS</text>
    <text class="a" transform="translate(1020.65 1756.89) rotate(-45)">WheelJS</text>
    <text class="a" transform="translate(1265.65 1101.89) rotate(-45)">WheelJS</text>
    <text class="a" transform="translate(1490.7 1638.56) rotate(-45)">WheelJS</text>
    <text class="a" transform="translate(150.7 1638.56) rotate(-45)">WheelJS</text>
  </g>
  <g>
    <g>
      <line class="b" x1="977.54" y1="355" x2="1667.54" y2="355"/>
      <rect class="c" x="1217.54" y="345" width="30" height="20" rx="2"/>
      <text class="d" transform="translate(1220.54 361.88)">232</text>
      <rect class="c" x="1667.54" y="345" width="30" height="20" rx="2"/>
      <text class="d" transform="translate(1670.54 361.88)">232</text>
      <line class="b" x1="137.54" y1="170" x2="142.54" y2="170"/>
    </g>
    <g>
      <line class="e" x1="682.54" y1="410" x2="962.54" y2="410"/>
      <line class="e" x1="647.54" y1="875" x2="647.54" y2="445"/>
      <path class="f" d="M620,445a35,35,0,0,1,35-35" transform="translate(27.54)"/>
      <path class="f" d="M620,875a35,35,0,0,1-35,35" transform="translate(27.54)"/>
      <line class="e" x1="337.54" y1="910" x2="612.54" y2="910"/>
      <rect class="g" x="802.54" y="400" width="30" height="20" rx="2"/>
      <text class="d" transform="translate(805.54 416.88)">230</text>
      <rect class="g" x="307.54" y="900" width="30" height="20" rx="2"/>
      <text class="d" transform="translate(310.54 916.88)">230</text>
    </g>
    <g>
      <line class="h" x1="977.54" y1="415" x2="1137.54" y2="415"/>
      <path class="i" d="M1105,415a35,35,0,0,1,35,35" transform="translate(27.54)"/>
      <rect class="j" x="1052.54" y="405" width="30" height="20" rx="2"/>
      <text class="d" transform="translate(1055.54 421.88)">265</text>
      <line class="h" x1="1167.54" y1="585" x2="1167.54" y2="450"/>
      <path class="i" d="M1140,585a35,35,0,0,1-35,35" transform="translate(27.54)"/>
      <line class="h" x1="1007.54" y1="620" x2="1132.54" y2="620"/>
      <path class="i" d="M945,655a35,35,0,0,1,35-35" transform="translate(27.54)"/>
      <line class="h" x1="972.54" y1="750" x2="972.54" y2="655"/>
      <path class="i" d="M980,785a35,35,0,0,1-35-35" transform="translate(27.54)"/>
      <line class="h" x1="1007.54" y1="785" x2="1132.54" y2="785"/>
      <path class="i" d="M1100,785a35,35,0,0,1,35,35" transform="translate(27.54)"/>
      <line class="h" x1="1162.54" y1="1310" x2="1162.54" y2="820"/>
      <path class="i" d="M1135,1310a35,35,0,0,1-35,35" transform="translate(27.54)"/>
      <line class="h" x1="1007.54" y1="1345" x2="1127.54" y2="1345"/>
      <path class="i" d="M945,1380a35,35,0,0,1,35-35" transform="translate(27.54)"/>
      <line class="h" x1="972.54" y1="1625" x2="972.54" y2="1380"/>
      <rect class="j" x="957.54" y="1625" width="30" height="20" rx="2"/>
      <text class="d" transform="translate(960.54 1641.88)">265</text>
    </g>
    <g>
      <path class="k" d="M695,1440a40,40,0,0,1,40-40" transform="translate(27.54)"/>
      <path class="k" d="M640,1145a40,40,0,0,1-40-40" transform="translate(27.54)"/>
      <path class="k" d="M560,990a40,40,0,0,1,40,40" transform="translate(27.54)"/>
      <line class="l" x1="762.54" y1="1400" x2="1252.54" y2="1400"/>
      <rect class="m" x="787.54" y="1390" width="30" height="20" rx="2"/>
      <text class="d" transform="translate(790.54 1406.88)">T17</text>
      <line class="l" x1="722.54" y1="1445" x2="722.54" y2="1440"/>
      <line class="l" x1="1292.54" y1="1360" x2="1292.54" y2="1185"/>
      <path class="k" d="M1265,1360a40,40,0,0,1-40,40" transform="translate(27.54)"/>
      <path class="k" d="M1225,1145a40,40,0,0,1,40,40" transform="translate(27.54)"/>
      <line class="l" x1="667.54" y1="1145" x2="1252.54" y2="1145"/>
      <line class="l" x1="627.54" y1="1105" x2="627.54" y2="1030"/>
      <line class="l" x1="337.54" y1="990" x2="587.54" y2="990"/>
      <rect class="m" x="307.54" y="980" width="30" height="20" rx="2"/>
      <text class="d" transform="translate(310.54 996.88)">T17</text>
    </g>
    <g>
      <line class="n" x1="977.54" y1="435" x2="1132.54" y2="435"/>
      <path class="o" d="M1100,435a20,20,0,0,1,20,20" transform="translate(27.54)"/>
      <rect class="p" x="1052.54" y="425" width="30" height="20" rx="2"/>
      <text class="d" transform="translate(1055.54 441.88)">516</text>
      <line class="n" x1="1147.54" y1="585" x2="1147.54" y2="455"/>
      <path class="o" d="M1120,585a20,20,0,0,1-20,20" transform="translate(27.54)"/>
      <line class="n" x1="1002.54" y1="605" x2="1127.54" y2="605"/>
      <path class="o" d="M925,655a50,50,0,0,1,50-50" transform="translate(27.54)"/>
      <line class="n" x1="952.54" y1="1020" x2="952.54" y2="655"/>
      <line class="n" x1="1017.54" y1="1065" x2="1447.54" y2="1065"/>
      <line class="n" x1="1467.54" y1="1115" x2="1467.54" y2="1085.01"/>
      <line class="n" x1="1362.54" y1="1135" x2="1447.54" y2="1135"/>
      <line class="n" x1="1342.54" y1="1340" x2="1342.54" y2="1170"/>
      <line class="n" x1="737.54" y1="1360" x2="1322.54" y2="1360"/>
      <line class="n" x1="692.54" y1="1445" x2="692.54" y2="1408.17"/>
      <path class="o" d="M975,1065c-27.64,0-50-20.13-50-45" transform="translate(27.54)"/>
      <path class="o" d="M1420,1065a20,20,0,0,1,20,20" transform="translate(27.54)"/>
      <path class="o" d="M1440,1115a20,20,0,0,1-20,20" transform="translate(27.54)"/>
      <path class="o" d="M1315,1155a20,20,0,0,1,20-20" transform="translate(27.54)"/>
      <path class="o" d="M1315,1340a20,20,0,0,1-20,20" transform="translate(27.54)"/>
      <path class="o" d="M665,1410c0-27.64,20.13-50,45-50" transform="translate(27.54)"/>
      <rect class="p" x="787.54" y="1350" width="30" height="20" rx="2"/>
      <text class="d" transform="translate(790.54 1366.88)">516</text>
    </g>
    <g>
      <rect class="q" x="1667.54" y="610" width="30" height="20" rx="2"/>
      <text class="d" transform="translate(1670.54 626.88)">221</text>
      <line class="r" x1="1322.54" y1="1220" x2="1322.54" y2="730"/>
      <path class="r" d="M1640,620" transform="translate(27.54)"/>
      <path class="s" d="M1295,730a35,35,0,0,1,35-35" transform="translate(27.54)"/>
      <line class="r" x1="667.54" y1="1250" x2="1287.54" y2="1250"/>
      <path class="s" d="M1490,660a35,35,0,0,1-35,35" transform="translate(27.54)"/>
      <path class="s" d="M1490,655a35,35,0,0,1,35-35" transform="translate(27.54)"/>
      <line class="r" x1="1552.54" y1="620" x2="1667.54" y2="620"/>
      <line class="r" x1="1517.54" y1="660" x2="1517.54" y2="655"/>
      <path class="s" d="M1295,1215a35,35,0,0,1-35,35" transform="translate(27.54)"/>
      <path class="s" d="M605,1285a35,35,0,0,1,35-35" transform="translate(27.54)"/>
      <path class="s" d="M605,1470a40,40,0,0,1-40,40" transform="translate(27.54)"/>
      <line class="r" x1="1357.54" y1="695" x2="1482.54" y2="695"/>
      <line class="r" x1="632.54" y1="1470" x2="632.54" y2="1285"/>
      <line class="r" x1="337.54" y1="1510" x2="592.54" y2="1510"/>
      <rect class="q" x="307.54" y="1500" width="30" height="20" rx="2"/>
      <text class="d" transform="translate(310.54 1516.88)">221</text>
    </g>
    <g>
      <line class="t" x1="977.54" y1="375" x2="1482.54" y2="375"/>
      <rect class="u" x="1217.54" y="365" width="30" height="20" rx="2"/>
      <text class="d" transform="translate(1220.54 381.88)">517</text>
      <path class="v" d="M1455,375a35,35,0,0,1,35,35" transform="translate(27.54)"/>
      <line class="t" x1="1517.54" y1="600" x2="1517.54" y2="410"/>
      <path class="v" d="M1490,600a35,35,0,0,1-35,35" transform="translate(27.54)"/>
      <line class="t" x1="712.54" y1="635" x2="1482.54" y2="635"/>
      <path class="v" d="M650,670a35,35,0,0,1,35-35" transform="translate(27.54)"/>
      <line class="t" x1="677.54" y1="1445" x2="677.54" y2="670"/>
    </g>
    <g>
      <line class="w" x1="977.54" y1="315" x2="1327.54" y2="315"/>
      <rect class="x" x="1217.54" y="305" width="30" height="20" rx="2"/>
      <text class="d" transform="translate(1220.54 321.88)">566</text>
      <path class="y" d="M1335,280a35,35,0,0,1-35,35" transform="translate(27.54)"/>
      <line class="w" x1="1362.54" y1="280" x2="1362.54" y2="210"/>
      <rect class="x" x="1347.54" y="190" width="30" height="20" rx="2"/>
      <text class="d" transform="translate(1350.54 206.88)">566</text>
    </g>
    <g>
      <line class="z" x1="977.54" y1="335" x2="1667.54" y2="335"/>
      <rect class="aa" x="1167.54" y="325" width="125" height="20" rx="2"/>
      <text class="d" transform="translate(1170.04 341.88)">T34 T35 T36 T38</text>
      <rect class="aa" x="1667.54" y="325" width="30" height="20" rx="2"/>
      <text class="d" transform="translate(1670.54 341.88)">T38</text>
      <rect class="aa" x="1667.54" y="305" width="30" height="20" rx="2"/>
      <text class="d" transform="translate(1670.54 321.88)">T36</text>
      <rect class="aa" x="1667.54" y="285" width="30" height="20" rx="2"/>
      <text class="d" transform="translate(1670.54 301.88)">T35</text>
      <rect class="aa" x="1667.54" y="265" width="30" height="20" rx="2"/>
      <text class="d" transform="translate(1670.54 281.88)">T34</text>
    </g>
    <g>
      <path class="ab" d="M635,1490a40,40,0,0,1-40,40" transform="translate(27.54)"/>
      <path class="ac" d="M690,1530a40,40,0,0,1-40-40" transform="translate(27.54)"/>
      <line class="ad" x1="662.54" y1="1490" x2="662.54" y2="1460"/>
      <line class="ad" x1="337.54" y1="1530" x2="622.54" y2="1530"/>
      <path class="ab" d="M590,1460a30,30,0,0,1-30,30" transform="translate(27.54)"/>
      <line class="ad" x1="337.54" y1="1490" x2="587.54" y2="1490"/>
      <rect class="ae" x="307.54" y="1520" width="30" height="20" rx="2"/>
      <text class="d" transform="translate(310.54 1536.88)">115</text>
      <rect class="ae" x="562.54" y="1520" width="30" height="20" rx="2"/>
      <text class="d" transform="translate(565.54 1536.88)">115</text>
      <rect class="ae" x="302.54" y="1460" width="35" height="20" rx="2"/>
      <text class="d" transform="translate(304.04 1476.88)">T115</text>
      <rect class="ae" x="517.54" y="1480" width="75" height="20" rx="2"/>
      <text class="d" transform="translate(519.04 1496.88)">T115 T209</text>
      <rect class="ae" x="302.54" y="1480" width="35" height="20" rx="2"/>
      <text class="d" transform="translate(304.04 1496.88)">T209</text>
    </g>
    <g>
      <line class="af" x1="747.54" y1="1380" x2="887.54" y2="1380"/>
      <rect class="ag" x="787.54" y="1370" width="30" height="20" rx="2"/>
      <text class="d" transform="translate(790.54 1386.88)">158</text>
      <path class="ah" d="M680,1420a40,40,0,0,1,40-40" transform="translate(27.54)"/>
      <path class="ah" d="M860,1380a40,40,0,0,1,40,40" transform="translate(27.54)"/>
      <line class="af" x1="707.54" y1="1445" x2="707.54" y2="1420"/>
      <line class="af" x1="927.54" y1="1645" x2="927.54" y2="1420"/>
      <rect class="ag" x="912.54" y="1645" width="30" height="20" rx="2"/>
      <text class="d" transform="translate(915.54 1661.88)">158</text>
    </g>
    <g>
      <line class="ai" x1="662.54" y1="1445" x2="662.54" y2="670"/>
      <line class="ai" x1="452.54" y1="600" x2="452.54" y2="295"/>
      <path class="aj" d="M600,635a35,35,0,0,1,35,35" transform="translate(27.54)"/>
      <line class="ai" x1="487.54" y1="635" x2="627.54" y2="635"/>
      <path class="aj" d="M460,635a35,35,0,0,1-35-35" transform="translate(27.54)"/>
      <rect class="ak" x="437.54" y="275" width="30" height="20" rx="2"/>
      <text class="d" transform="translate(440.54 291.88)">188</text>
    </g>
    <g>
      <line class="al" x1="647.54" y1="1445" x2="647.54" y2="1010"/>
      <rect class="am" x="632.54" y="1385" width="30" height="20" rx="2"/>
      <text class="d" transform="translate(635.54 1401.88)">163</text>
      <path class="an" d="M580,970a40,40,0,0,1,40,40" transform="translate(27.54)"/>
      <line class="al" x1="337.54" y1="970" x2="607.54" y2="970"/>
      <rect class="am" x="307.54" y="960" width="30" height="20" rx="2"/>
      <text class="d" transform="translate(310.54 976.88)">163</text>
    </g>
    <g>
      <line class="ao" x1="452.54" y1="395" x2="1157.54" y2="395"/>
      <rect class="ap" x="1052.54" y="385" width="30" height="20" rx="2"/>
      <text class="d" transform="translate(1055.54 401.88)">903</text>
      <rect class="ap" x="1667.54" y="900" width="30" height="20" rx="2"/>
      <text class="d" transform="translate(1670.54 916.88)">903</text>
      <path class="aq" d="M1130,395a35,35,0,0,1,35,35" transform="translate(27.54)"/>
      <line class="ao" x1="1192.54" y1="430" x2="1192.54" y2="820"/>
      <line class="ao" x1="1192.54" y1="820" x2="1192.54" y2="875"/>
      <path class="aq" d="M1200,910a35,35,0,0,1-35-35" transform="translate(27.54)"/>
      <line class="ao" x1="1667.54" y1="910" x2="1227.54" y2="910"/>
      <path class="aq" d="M390,430a35,35,0,0,1,35-35" transform="translate(27.54)"/>
      <line class="ao" x1="417.54" y1="860" x2="417.54" y2="430"/>
      <path class="aq" d="M390,855a35,35,0,0,1-35,35" transform="translate(27.54)"/>
      <line class="ao" x1="337.54" y1="890" x2="382.54" y2="890"/>
      <rect class="ap" x="307.54" y="880" width="30" height="20" rx="2"/>
      <text class="d" transform="translate(310.54 896.88)">903</text>
    </g>
    <rect class="ak" x="647.54" y="1365" width="30" height="20" rx="2"/>
    <text class="d" transform="translate(650.54 1381.88)">188</text>
    <rect class="u" x="662.54" y="1345" width="30" height="20" rx="2"/>
    <text class="d" transform="translate(665.54 1361.88)">517</text>
    <g>
      <line class="ar" x1="1667.54" y1="930" x2="337.54" y2="930"/>
      <rect class="as" x="307.54" y="920" width="30" height="20" rx="2"/>
      <text class="d" transform="translate(310.54 936.88)">162</text>
      <rect class="as" x="307.54" y="1000" width="30" height="20" rx="2"/>
      <text class="d" transform="translate(310.54 1016.88)">308</text>
      <rect class="as" x="307.54" y="1020" width="30" height="20" rx="2"/>
      <text class="d" transform="translate(310.54 1036.88)">321</text>
      <rect class="as" x="1667.54" y="920" width="30" height="20" rx="2"/>
      <text class="d" transform="translate(1670.54 936.88)">162</text>
      <rect class="at" x="1667.54" y="940" width="30" height="20" rx="2"/>
      <text class="d" transform="translate(1670.54 956.88)">T31</text>
      <rect class="at" x="307.54" y="940" width="30" height="20" rx="2"/>
      <text class="d" transform="translate(310.54 956.88)">T31</text>
      <rect class="as" x="1697.54" y="920" width="30" height="20" rx="2"/>
      <text class="d" transform="translate(1700.54 936.88)">308</text>
      <rect class="as" x="1727.54" y="920" width="30" height="20" rx="2"/>
      <text class="d" transform="translate(1730.54 936.88)">321</text>
    </g>
    <line class="au" x1="1667.54" y1="950" x2="337.54" y2="950"/>
    <g>
      <line class="av" x1="337.54" y1="1550" x2="1512.54" y2="1550"/>
      <rect class="aw" x="307.54" y="1540" width="30" height="20" rx="2"/>
      <text class="d" transform="translate(310.54 1556.88)">300</text>
      <rect class="aw" x="1512.54" y="1540" width="30" height="20" rx="2"/>
      <text class="d" transform="translate(1515.54 1556.88)">300</text>
      <rect class="aw" x="1512.54" y="1660" width="30" height="20" rx="2"/>
      <text class="d" transform="translate(1515.54 1676.88)">303</text>
      <rect class="aw" x="1512.54" y="1700" width="30" height="20" rx="2"/>
      <text class="d" transform="translate(1515.54 1716.88)">305</text>
      <rect class="aw" x="1512.54" y="1720" width="30" height="20" rx="2"/>
      <text class="d" transform="translate(1515.54 1736.88)">305</text>
      <rect class="aw" x="307.54" y="1580" width="30" height="20" rx="2"/>
      <text class="d" transform="translate(310.54 1596.88)">305</text>
      <rect class="aw" x="247.54" y="1580" width="60" height="20" rx="2"/>
      <text class="d" transform="translate(249.54 1596.88)">303支线</text>
      <rect class="aw" x="1482.54" y="1680" width="60" height="20" rx="2"/>
      <text class="d" transform="translate(1484.54 1696.88)">303支线</text>
      <rect class="aw" x="217.54" y="1580" width="30" height="20" rx="2"/>
      <text class="d" transform="translate(220.54 1596.88)">303</text>
      <rect class="aw" x="307.54" y="1600" width="30" height="20" rx="2"/>
      <text class="d" transform="translate(310.54 1616.88)">306</text>
      <rect class="aw" x="307.54" y="1620" width="30" height="20" rx="2"/>
      <text class="d" transform="translate(310.54 1636.88)">311</text>
    </g>
    <g>
      <rect class="ax" x="307.54" y="1560" width="30" height="20" rx="2"/>
      <text class="d" transform="translate(310.54 1576.88)">301</text>
      <rect class="ax" x="1512.54" y="1560" width="30" height="20" rx="2"/>
      <text class="d" transform="translate(1515.54 1576.88)">301</text>
      <line class="ay" x1="337.54" y1="1570" x2="1512.54" y2="1570"/>
    </g>
    <g>
      <line class="az" x1="677.54" y1="1490" x2="677.54" y2="1460"/>
      <line class="az" x1="717.54" y1="1530" x2="1512.54" y2="1530"/>
      <rect class="ba" x="837.54" y="1520" width="160" height="20" rx="2"/>
      <text class="d" transform="translate(841.54 1536.88)">176 181 182 183 220</text>
      <rect class="ba" x="1512.54" y="1520" width="30" height="20" rx="2"/>
      <text class="d" transform="translate(1515.54 1536.88)">176</text>
      <rect class="ba" x="1512.54" y="1580" width="30" height="20" rx="2"/>
      <text class="d" transform="translate(1515.54 1596.88)">181</text>
      <rect class="ba" x="1512.54" y="1600" width="30" height="20" rx="2"/>
      <text class="d" transform="translate(1515.54 1616.88)">182</text>
      <rect class="ba" x="1512.54" y="1620" width="30" height="20" rx="2"/>
      <text class="d" transform="translate(1515.54 1636.88)">183</text>
      <rect class="ba" x="1512.54" y="1640" width="30" height="20" rx="2"/>
      <text class="d" transform="translate(1515.54 1656.88)">220</text>
    </g>
  </g>
  <g>
    <rect class="bb" x="962.54" y="305" width="15" height="145" rx="4"/>
    <text class="bc" transform="translate(982.54 300)">地铁彭家庄站</text>
    <rect class="bb" x="1467.54" y="340" width="15" height="50" rx="7.5"/>
    <text class="bc" transform="translate(1367.54 405)">飞跃大道围子山路</text>
    <rect class="bb" x="1327.54" y="595" width="15" height="50" rx="7.5"/>
    <text class="bc" transform="translate(1347.54 595)">稼轩学校</text>
    <rect class="bb" x="1202.54" y="595" width="15" height="50" rx="7.5"/>
    <text class="bc" transform="translate(1222.54 595)">贞元街唐冶东路</text>
    <text class="bc" transform="translate(1702.54 360)">往黄金谷小区</text>
    <text class="bc" transform="translate(1702.54 625)">往邦德激光</text>
    <rect class="bb" x="627.5" y="462.5" width="15" height="50" rx="7.5" transform="translate(175.04 1122.5) rotate(-90)"/>
    <text class="bc" transform="translate(692.54 475)">唐冶西路飞跃大道</text>
    <rect class="bb" x="417.5" y="502.5" width="15" height="50" rx="7.5" transform="translate(-74.96 952.5) rotate(-90)"/>
    <text class="bc" transform="translate(482.54 515)">龙凤山路飞跃大道</text>
    <text class="bc" transform="translate(472.54 290)">往济南东站公交东枢纽</text>
    <text class="bc" transform="translate(192.54 175)">方向</text>
    <rect class="bb" x="627.5" y="567.5" width="15" height="50" rx="7.5" transform="translate(70.04 1227.5) rotate(-90)"/>
    <text class="bc" transform="translate(692.54 580)">唐冶西路贞元街</text>
    <rect class="bb" x="627.5" y="672.5" width="15" height="50" rx="7.5" transform="translate(-34.96 1332.5) rotate(-90)"/>
    <text class="bc" transform="translate(697.54 685)">唐城小区</text>
    <rect class="bb" x="627.5" y="792.5" width="15" height="50" rx="7.5" transform="translate(-154.96 1452.5) rotate(-90)"/>
    <text class="bc" transform="translate(697.54 805)">唐冶西路贞观街</text>
    <rect class="bb" x="457.54" y="895" width="15" height="90" rx="7.5"/>
    <text class="bc" transform="translate(477.54 895)">世纪大道龙凤山路</text>
    <text class="bc" transform="translate(267.54 915)">往北湖</text>
    <text class="bc" transform="translate(207.54 975)">往花园路二环东路</text>
    <text class="bc" transform="translate(207.54 1015)">往花园路二环东路</text>
    <text class="bc" transform="translate(207.54 1035)">往花园路二环东路</text>
    <text class="bc" transform="translate(219.54 935)">往高新区管委会</text>
    <text class="bc" transform="translate(219.54 955)">往高新区管委会</text>
    <text class="bc" transform="translate(219.54 995)">往高新区管委会</text>
    <text class="bc" transform="translate(202.54 1515)">往济莱高铁历城站</text>
    <text class="bc" transform="translate(202.54 1535)">往经八路青年西路</text>
    <text class="bc" transform="translate(226.54 1555)">往齐鲁软件园</text>
    <text class="bc" transform="translate(214.54 1575)">往公交营运中心</text>
    <text class="bc" transform="translate(1547.54 1575)">往章丘（山东技师学院）</text>
    <text class="bc" transform="translate(1547.54 1555)">往莱蒙湖</text>
    <text class="bc" transform="translate(1547.54 1535)">往济南国际鲜花港</text>
    <text class="bc" transform="translate(1547.54 1595)">往王家鹊山</text>
    <text class="bc" transform="translate(1547.54 1615)">往西丝峪村</text>
    <text class="bc" transform="translate(1547.54 1635)">往康井孟村</text>
    <text class="bc" transform="translate(1547.54 1655)">往济南药谷产业园</text>
    <text class="bc" transform="translate(1547.54 1675)">往玉河泉</text>
    <text class="bc" transform="translate(1547.54 1715)">往南泉</text>
    <text class="bc" transform="translate(1547.54 1735)">往济南职业学院</text>
    <text class="bc" transform="translate(1547.54 1695)">往玉龙</text>
    <text class="bc" transform="translate(127.54 1595)">往燕山立交桥东</text>
    <text class="bc" transform="translate(202.54 1615)">往舜泰北路凤凰路</text>
    <text class="bc" transform="translate(250.54 1635)">往洪家楼</text>
    <text class="bc" transform="translate(202.54 1475)">往经八路青年西路</text>
    <text class="bc" transform="translate(190.54 1495)">往二环东路工业南路</text>
    <rect class="bb" x="1122.5" y="492.5" width="15" height="50" rx="7.5" transform="translate(640.04 1647.5) rotate(-90)"/>
    <text class="bd" transform="translate(1082.54 505)">历城二中</text>
    <rect class="bb" x="927.5" y="687.5" width="15" height="50" rx="7.5" transform="translate(250.04 1647.5) rotate(-90)"/>
    <text class="bc" transform="translate(992.54 700)">唐冶中路贞观街</text>
    <rect class="bb" x="1007.54" y="595" width="15" height="50" rx="7.5"/>
    <text class="bc" transform="translate(1027.54 590)">附设站</text>
    <rect class="bb" x="1007.54" y="760" width="15" height="50" rx="7.5"/>
    <text class="bc" transform="translate(1027.54 755)">贞观街唐冶中路</text>
    <rect class="bb" x="712.54" y="890" width="15" height="50" rx="7.5"/>
    <text class="bc" transform="translate(732.54 885)">世纪大道唐冶西路</text>
    <rect class="bb" x="1042.54" y="910" width="15" height="50" rx="7.5"/>
    <text class="bc" transform="translate(1062.54 905)">唐冶</text>
    <rect class="bb" x="1392.54" y="900" width="15" height="60" rx="7.5"/>
    <text class="bc" transform="translate(1412.54 895)">山东省康复医院</text>
    <rect class="bb" x="1117.54" y="760" width="15" height="50" rx="7.5"/>
    <rect class="be" x="1137.54" y="742.58" width="85" height="15" rx="2"/>
    <text class="bc" transform="translate(1137.54 754.3)">贞观街唐冶东路</text>
    <rect class="bb" x="1142.5" y="852.5" width="15" height="60" rx="7.5" transform="translate(295.04 2032.5) rotate(-90)"/>
    <text class="bc" transform="translate(1047.54 870)">唐冶东路世纪大道</text>
    <text class="bc" transform="translate(1702.54 915)">往章丘客运总站</text>
    <text class="bc" transform="translate(1762.54 935)">往孙村新区</text>
    <text class="bc" transform="translate(1702.54 955)">往孙村新区</text>
    <rect class="bb" x="1137.5" y="982.5" width="15" height="50" rx="7.5" transform="translate(165.04 2152.5) rotate(-90)"/>
    <text class="bc" transform="translate(1202.54 995)">唐冶东路文苑街</text>
    <rect class="bb" x="1137.5" y="1187.5" width="15" height="50" rx="7.5" transform="translate(-39.96 2357.5) rotate(-90)"/>
    <text class="bc" transform="translate(1062.54 1200)">唐冶东路邢村街</text>
    <rect class="bb" x="927.5" y="1402.5" width="15" height="50" rx="7.5" transform="translate(-464.96 2362.5) rotate(-90)"/>
    <text class="bc" transform="translate(992.54 1430)">唐冶中路敬德街</text>
    <text class="bc" transform="translate(992.54 1640)">往省委党校东校</text>
    <text class="bc" transform="translate(947.54 1660)">往济南职业学院</text>
    <rect class="bb" x="1002.54" y="1040" width="15" height="50" rx="7.5"/>
    <text class="bc" transform="matrix(0.97, -0.26, 0.26, 0.97, 1017.58, 1035.02)">文苑街唐冶中路</text>
    <rect class="bb" x="1092.54" y="1040" width="15" height="50" rx="7.5"/>
    <text class="bc" transform="matrix(0.97, -0.26, 0.26, 0.97, 1057.58, 1045.02)">历城工人文化宫</text>
    <rect class="bb" x="1292.54" y="1040" width="15" height="50" rx="7.5"/>
    <text class="bc" transform="translate(1207.54 1105)">文苑街围子山路</text>
    <rect class="bb" x="1432.5" y="1077.5" width="15" height="50" rx="7.5" transform="translate(365.04 2542.5) rotate(-90)"/>
    <text class="bc" transform="translate(1497.54 1090)">银丰唐郡牡丹园</text>
    <rect class="bb" x="1402.54" y="1110" width="15" height="50" rx="7.5"/>
    <text class="bc" transform="translate(1422.54 1160)">银丰唐郡桂花园北门</text>
    <rect class="bb" x="1292.5" y="1137.5" width="15" height="50" rx="7.5" transform="translate(165.04 2462.5) rotate(-90)"/>
    <text class="bc" transform="translate(1357.54 1185)">围子山路幼安街</text>
    <rect class="bb" x="1282.5" y="1177.5" width="15" height="70" rx="7.5" transform="translate(105.04 2502.5) rotate(-90)"/>
    <text class="bc" transform="translate(1357.54 1230)">唐冶新区管委会</text>
    <rect class="bb" x="1292.5" y="1292.5" width="15" height="50" rx="7.5" transform="translate(10.04 2617.5) rotate(-90)"/>
    <text class="bc" transform="translate(1357.54 1305)">银丰山青苑</text>
    <rect class="bb" x="1267.54" y="1335" width="15" height="50" rx="7.5"/>
    <text class="bc" transform="translate(1172.54 1330)">围子山路唐冶东路</text>
    <rect class="bb" x="837.54" y="1340" width="15" height="50" rx="7.5"/>
    <text class="bc" transform="translate(857.54 1335)">敬德街唐冶中路</text>
    <rect class="bb" x="862.54" y="1225" width="15" height="50" rx="7.5"/>
    <text class="bc" transform="translate(882.54 1220)">凤凰城南区</text>
    <rect class="bb" x="477.54" y="1495" width="15" height="95" rx="7.5"/>
    <text class="bc" transform="translate(497.54 1600)">邢村立交桥东</text>
    <rect class="bb" x="635" y="1385" width="15" height="135" rx="7.5" transform="translate(-782.46 2095) rotate(-90)"/>
    <text class="bc" transform="translate(737.54 1475)">唐冶公交枢纽</text>
    <rect class="bb" x="1482.5" y="402.5" width="15" height="50" rx="7.5" transform="translate(1090.04 1917.5) rotate(-90)"/>
    <text class="bc" transform="translate(1547.54 415)">围子山路飞跃大道</text>
    <rect class="bb" x="1482.5" y="492.5" width="15" height="50" rx="7.5" transform="translate(1000.04 2007.5) rotate(-90)"/>
    <text class="bc" transform="translate(1547.54 505)">围子山路二中北路</text>
    <rect class="bb" x="1452.54" y="595" width="15" height="50" rx="7.5"/>
    <text class="bc" transform="translate(1367.54 660)">贞元街围子山路</text>
    <rect class="bb" x="862.54" y="595" width="15" height="50" rx="7.5"/>
    <text class="bc" transform="translate(882.54 595)">贞元街唐冶中路</text>
    <rect class="bb" x="717.54" y="595" width="15" height="50" rx="7.5"/>
    <text class="bc" transform="translate(737.54 620)">贞元街唐冶西路</text>
    <rect class="bb" x="522.54" y="600" width="15" height="50" rx="7.5"/>
    <text class="bc" transform="translate(542.54 600)">唐城小区北</text>
    <rect class="bb" x="617.5" y="967.5" width="15" height="80" rx="7.5" transform="translate(-354.96 1632.5) rotate(-90)"/>
    <text class="bc" transform="translate(697.54 995)">唐冶西路世纪大道</text>
    <rect class="bb" x="630" y="1020" width="15" height="55" rx="7.5" transform="translate(-382.46 1685) rotate(-90)"/>
    <text class="bc" transform="translate(697.54 1035)">唐冶西路文苑街</text>
    <rect class="bb" x="617.5" y="1072.5" width="15" height="80" rx="7.5" transform="translate(-459.96 1737.5) rotate(-90)"/>
    <text class="bc" transform="translate(697.54 1100)">唐冶西路幼安街</text>
    <rect class="bb" x="627.5" y="1277.5" width="15" height="60" rx="7.5" transform="translate(-644.96 1942.5) rotate(-90)"/>
    <text class="bc" transform="translate(697.54 1295)">唐官小区</text>
    <rect class="bb" x="1327.5" y="252.5" width="15" height="50" rx="7.5" transform="translate(1085.04 1612.5) rotate(-90)"/>
    <text class="bc" transform="translate(1392.54 265)">土河西路飞跃大道</text>
    <text class="bc" transform="translate(1382.54 205)">往李家东路北段</text>
    <text class="bc" transform="translate(195.54 895)">往济南长途汽车东站</text>
    <rect class="bb" x="1582.54" y="320" width="15" height="50" rx="7.5"/>
    <text class="bc" transform="translate(1602.54 320)">武家庄</text>
    <rect class="bb" x="1587.54" y="595" width="15" height="50" rx="7.5"/>
    <text class="bc" transform="translate(1607.54 595)">武家庄南</text>
    <text class="bc" transform="translate(1702.54 340)">往柿子园村</text>
    <text class="bc" transform="translate(1702.54 320)">往孙村新区</text>
    <text class="bc" transform="translate(1702.54 300)">往大正路科创路</text>
    <text class="bc" transform="translate(1702.54 280)">往春博路科远路</text>
    <rect class="bb" x="1452.54" y="670" width="15" height="50" rx="7.5"/>
    <text class="bc" transform="translate(1472.54 735)">围子山路贞元街</text>
    <rect class="bb" x="1292.5" y="747.5" width="15" height="50" rx="7.5" transform="translate(555.04 2072.5) rotate(-90)"/>
    <text class="bc" transform="translate(1357.54 760)">围子山路贞观街</text>
    <rect class="bb" x="1292.5" y="857.5" width="15" height="50" rx="7.5" transform="translate(445.04 2182.5) rotate(-90)"/>
    <text class="bc" transform="translate(1357.54 865)">围子山路世纪大道</text>
    <rect class="bb" x="1292.5" y="942.5" width="15" height="50" rx="7.5" transform="translate(360.04 2267.5) rotate(-90)"/>
    <text class="bc" transform="translate(1357.54 980)">山东省康复医院西门</text>
    <rect class="bb" x="1292.5" y="1002.5" width="15" height="50" rx="7.5" transform="translate(300.04 2327.5) rotate(-90)"/>
    <text class="bc" transform="translate(1357.54 1015)">帝华鸿府</text>
    <rect class="bb" x="1257.54" y="1225" width="15" height="50" rx="7.5"/>
    <text class="bc" transform="translate(1207.54 1290)">华夏帝苑</text>
    <rect class="bb" x="807.54" y="1515" width="15" height="50" rx="7.5"/>
    <text class="bc" transform="translate(827.54 1510)">邢村</text>
    <rect class="bb" x="1407.54" y="1520" width="15" height="70" rx="7.5"/>
    <text class="bc" transform="translate(1427.54 1515)">山青苑</text>
  </g>
  <g>
    <text class="bf" transform="translate(136.54 145)">图例</text>
    <text class="bg" transform="translate(134.54 81.25)">唐冶公交线网图</text>
    <rect class="c" x="142.54" y="160" width="45" height="20" rx="2"/>
    <text class="bh" transform="translate(147.04 175.16)">线路号</text>
    <line class="b" x1="137.54" y1="210" x2="217.54" y2="210"/>
    <rect class="c" x="157.54" y="200" width="40" height="20" rx="2"/>
    <text class="bh" transform="translate(159.54 215.16)">线路号</text>
    <rect class="bb" x="127.5" y="222.5" width="15" height="50" rx="7.5" transform="translate(-84.96 382.5) rotate(-90)"/>
    <text class="bc" transform="translate(227.54 250)">站点</text>
    <text class="bc" transform="translate(227.54 215)">线路起/终点</text>
    <text class="bc" transform="translate(227.54 175)">线路开往方向</text>
    <text class="bi" transform="translate(1527.54 1830)">说明：本图经变形处理，仅供参考，数据最后更新日期：2023/3/19。<tspan x="0" y="14.4">本图基于CC BY-NC-SA 4.0，署名-非商业性使用-相同方式共享 4.0国际，</tspan><tspan x="0" y="28.8">请认真阅读版权声明</tspan><tspan class="bj" x="108" y="28.8">(https://creativecommons.org/licenses/by-nc-sa/4.0/deed.zh)</tspan><tspan x="403" y="28.8">。</tspan></text>
    <rect class="bk" x="1527.54" y="1870" width="200" height="30"/>
    <rect class="bk" x="139.54" width="200" height="30"/>
  </g>
</svg>
